<?xml version="1.0" standalone="no"?>
<!DOCTYPE svg PUBLIC "-//W3C//DTD SVG 20010904//EN"
 "http://www.w3.org/TR/2001/REC-SVG-20010904/DTD/svg10.dtd">
<svg version="1.0" xmlns="http://www.w3.org/2000/svg"
 width="300.000000pt" height="170.000000pt" viewBox="0 0 300.000000 170.000000"
 preserveAspectRatio="xMidYMid meet">

<g transform="translate(0.000000,170.000000) scale(0.100000,-0.100000)"
fill="#000000" stroke="none">
<path d="M1080 1571 l0 -110 -267 -3 -268 -3 -68 -32 c-89 -43 -169 -119 -210
-202 -30 -61 -32 -72 -32 -171 0 -97 2 -110 31 -171 40 -84 114 -158 201 -201
l68 -33 208 -3 207 -3 0 253 0 254 -32 -2 c-18 -1 -39 -2 -45 -3 -10 -1 -13
-49 -13 -207 l0 -207 -144 5 c-138 4 -147 6 -209 36 -242 119 -242 433 -2 561
50 26 51 26 313 29 l262 3 0 -50 0 -51 45 0 45 0 0 210 0 210 -45 0 -45 0 0
-109z"/>
<path d="M1390 1470 l0 -210 45 0 45 0 0 210 0 210 -45 0 -45 0 0 -210z"/>
<path d="M1600 1045 l0 -415 173 0 c253 0 335 27 447 146 79 85 104 149 104
269 0 142 -53 248 -166 331 -96 71 -156 84 -374 84 l-184 0 0 -415z m424 295
c72 -27 139 -88 173 -158 38 -77 40 -193 5 -264 -32 -65 -94 -125 -160 -156
-52 -25 -70 -27 -204 -30 l-148 -4 0 316 0 316 140 0 c116 0 148 -3 194 -20z"/>
<path d="M2440 1045 l0 -415 155 0 155 0 0 51 0 50 -102 -2 -103 -2 -3 162 -2
161 105 0 105 0 0 45 0 45 -105 0 -105 0 0 110 0 110 105 0 105 0 0 50 0 50
-155 0 -155 0 0 -415z"/>
<path d="M1075 1141 c-3 -2 -5 -116 -5 -253 l0 -248 205 0 205 0 0 250 0 250
-45 0 -45 0 0 -205 0 -205 -110 0 -110 0 -2 207 -3 207 -43 1 c-23 1 -45 -1
-47 -4z"/>
<path d="M230 500 c0 -20 7 -20 1260 -20 1253 0 1260 0 1260 20 0 20 -7 20
-1260 20 -1253 0 -1260 0 -1260 -20z"/>
<path d="M450 320 l0 -61 -31 17 c-63 32 -131 -6 -145 -82 -20 -108 58 -191
142 -151 19 9 34 12 34 7 0 -6 14 -10 30 -10 l30 0 0 170 0 170 -30 0 -30 0 0
-60z m-30 -90 c36 -19 38 -101 4 -135 -53 -53 -114 57 -68 123 17 24 35 27 64
12z"/>
<path d="M580 350 c0 -27 3 -30 30 -30 27 0 30 3 30 30 0 27 -3 30 -30 30 -27
0 -30 -3 -30 -30z"/>
<path d="M1110 211 l0 -171 30 0 29 0 3 128 3 127 23 -90 c46 -181 39 -165 76
-165 l34 0 27 113 c15 61 32 119 36 127 5 9 8 -40 6 -113 l-2 -127 33 0 32 0
0 171 0 170 -52 -3 -53 -3 -26 -101 c-15 -56 -28 -107 -31 -115 -2 -7 -18 38
-35 101 l-30 115 -51 3 -52 3 0 -170z"/>
<path d="M755 275 c-38 -19 -54 -44 -61 -98 -9 -61 15 -114 60 -132 43 -18 76
-19 110 -3 28 12 59 52 49 62 -12 12 -61 6 -73 -9 -17 -20 -43 -19 -63 3 -32
35 -21 42 63 42 l80 0 0 30 c0 43 -25 87 -60 105 -36 19 -66 19 -105 0z m89
-57 c24 -34 20 -38 -34 -38 -54 0 -62 10 -33 42 22 24 49 23 67 -4z"/>
<path d="M1548 274 c-36 -19 -58 -63 -58 -114 0 -84 56 -137 133 -127 40 5 87
40 87 64 0 19 -50 16 -72 -4 -25 -22 -72 -7 -76 25 -3 21 0 22 77 22 81 0 81
0 81 26 0 91 -94 151 -172 108z m84 -46 c8 -7 18 -21 21 -30 6 -16 0 -18 -43
-18 -43 0 -50 3 -50 20 0 33 44 50 72 28z"/>
<path d="M1804 276 c-33 -14 -44 -33 -44 -70 0 -31 25 -51 88 -70 69 -20 76
-24 61 -42 -17 -20 -65 -17 -81 5 -10 13 -21 17 -45 14 -37 -6 -39 -10 -18
-40 49 -70 215 -43 215 34 0 45 -18 62 -91 83 -43 13 -69 26 -66 33 5 17 55
21 74 5 13 -11 61 -13 71 -3 10 10 -22 44 -49 54 -42 14 -77 13 -115 -3z"/>
<path d="M2080 283 c-32 -12 -50 -37 -50 -68 0 -41 24 -63 90 -80 60 -16 65
-19 57 -40 -9 -22 -74 -20 -86 3 -7 14 -18 18 -40 14 -38 -5 -39 -24 -5 -51
78 -61 220 -16 200 64 -8 31 -41 53 -103 69 -29 8 -48 18 -48 27 0 19 53 24
73 7 11 -9 28 -12 46 -9 l29 6 -24 29 c-20 23 -35 29 -75 32 -27 2 -56 1 -64
-3z"/>
<path d="M2343 271 c-43 -27 -53 -49 -53 -115 0 -47 4 -61 29 -88 26 -30 35
-33 84 -33 45 0 60 5 81 24 14 14 26 30 26 38 0 19 -66 17 -74 -2 -12 -34 -86
-2 -86 37 0 5 38 8 85 8 93 0 92 0 75 61 -21 75 -103 110 -167 70z m91 -47
c31 -30 20 -44 -34 -44 -54 0 -58 4 -34 38 18 26 46 28 68 6z"/>
<path d="M2652 274 c-12 -8 -22 -10 -22 -5 0 6 -13 11 -30 11 l-30 0 0 -120 0
-120 29 0 28 0 6 80 c6 88 19 114 53 107 18 -3 25 2 33 24 7 22 6 29 -6 33
-23 9 -37 7 -61 -10z"/>
<path d="M580 160 l0 -120 30 0 30 0 0 120 0 120 -30 0 -30 0 0 -120z"/>
</g>
</svg>
