<?xml version="1.0" standalone="no"?>
<!DOCTYPE svg PUBLIC "-//W3C//DTD SVG 20010904//EN"
 "http://www.w3.org/TR/2001/REC-SVG-20010904/DTD/svg10.dtd">
<svg version="1.0" xmlns="http://www.w3.org/2000/svg"
 width="189.000000pt" height="155.000000pt" viewBox="0 0 189.000000 155.000000"
 preserveAspectRatio="xMidYMid meet">

<g transform="translate(0.000000,155.000000) scale(0.100000,-0.100000)"
fill="#000000" stroke="none">
<path d="M862 1330 l-52 -69 37 -35 c56 -53 66 -49 88 33 8 27 14 37 14 23 1
-34 28 -92 43 -92 6 0 29 16 49 36 l38 37 -46 56 c-25 31 -48 62 -50 68 -3 7
-19 13 -37 12 -26 0 -39 -10 -84 -69z"/>
<path d="M718 1187 c-56 -44 -67 -57 -67 -82 0 -25 11 -38 68 -82 l69 -51 36
37 c20 20 36 43 36 49 0 15 -58 42 -92 43 -14 0 -4 6 23 14 82 22 86 32 33 88
-19 20 -36 37 -37 36 -1 0 -32 -23 -69 -52z"/>
<path d="M1060 1199 c-47 -51 -42 -63 36 -83 l49 -13 -46 -7 c-26 -4 -54 -15
-62 -24 -15 -16 -13 -21 24 -60 l39 -43 58 47 c31 25 63 49 69 51 17 7 17 69
0 76 -6 2 -38 26 -70 52 l-58 47 -39 -43z"/>
<path d="M852 991 l-44 -38 54 -71 c45 -61 57 -71 84 -71 18 -1 34 5 37 12 2
6 25 38 51 69 l46 57 -37 35 c-56 53 -76 45 -89 -34 l-8 -45 -12 49 c-20 76
-31 81 -82 37z"/>
<path d="M130 603 c0 -9 14 -13 45 -13 l45 0 0 -140 c0 -133 1 -140 20 -140
19 0 20 7 20 140 l0 140 45 0 c31 0 45 4 45 13 0 10 -26 13 -110 13 -84 0
-110 -3 -110 -13z"/>
<path d="M480 602 c-68 -34 -100 -127 -71 -205 33 -87 170 -119 250 -59 62 46
83 141 48 209 -35 66 -151 94 -227 55z m130 -15 c61 -31 87 -118 56 -191 -19
-45 -52 -66 -105 -66 -37 0 -49 5 -77 36 -31 33 -34 40 -34 101 0 61 2 67 34
99 37 37 80 44 126 21z"/>
<path d="M820 458 c0 -152 -1 -163 -22 -185 -28 -30 -11 -30 27 1 l30 24 3
161 c3 157 3 161 -17 161 -20 0 -21 -5 -21 -162z"/>
<path d="M990 465 c0 -148 1 -155 20 -155 19 0 20 7 20 155 0 148 -1 155 -20
155 -19 0 -20 -7 -20 -155z"/>
<path d="M1150 463 c0 -146 1 -153 20 -153 19 0 20 7 20 146 l0 147 40 -6 c51
-7 70 -22 70 -57 0 -31 -23 -55 -62 -65 -16 -4 -28 -9 -28 -12 0 -2 24 -37 54
-77 42 -57 61 -75 86 -80 52 -10 57 -7 25 12 -43 26 -123 134 -104 141 31 10
69 60 69 90 0 45 -35 63 -120 65 l-70 2 0 -153z"/>
<path d="M1510 602 c-68 -34 -100 -127 -71 -205 33 -87 170 -119 250 -59 62
46 83 141 48 209 -35 66 -151 94 -227 55z m130 -15 c61 -31 87 -118 56 -191
-19 -45 -52 -66 -105 -66 -37 0 -49 5 -77 36 -31 33 -34 40 -34 101 0 61 2 67
34 99 37 37 80 44 126 21z"/>
<path d="M740 129 c0 -37 -2 -41 -21 -36 -17 5 -19 3 -10 -6 19 -19 46 5 49
47 2 21 -1 36 -7 36 -6 0 -11 -19 -11 -41z"/>
<path d="M821 152 c-17 -32 -31 -72 -25 -72 3 0 12 17 21 38 10 23 17 31 20
22 8 -28 26 -60 34 -60 8 0 -17 69 -31 84 -4 4 -13 -1 -19 -12z"/>
<path d="M910 125 c0 -25 5 -45 10 -45 6 0 10 9 10 20 0 11 6 20 13 20 19 0
36 20 30 36 -3 8 -18 14 -34 14 -28 0 -29 -2 -29 -45z m50 20 c0 -8 -7 -15
-15 -15 -8 0 -15 7 -15 15 0 8 7 15 15 15 8 0 15 -7 15 -15z"/>
<path d="M1016 134 c-9 -20 -15 -39 -12 -41 3 -3 11 10 19 28 l14 34 12 -37
c7 -21 17 -38 23 -38 5 0 8 3 6 8 -2 4 -10 24 -18 45 -8 20 -17 37 -20 37 -4
0 -14 -16 -24 -36z"/>
<path d="M1112 123 c1 -37 2 -40 5 -15 2 17 6 32 9 32 2 0 18 -15 34 -32 l29
-33 -1 50 c-1 44 -1 46 -7 17 l-6 -34 -23 31 c-32 43 -42 39 -40 -16z"/>
</g>
</svg>
