<?xml version="1.0" standalone="no"?>
<!DOCTYPE svg PUBLIC "-//W3C//DTD SVG 20010904//EN"
 "http://www.w3.org/TR/2001/REC-SVG-20010904/DTD/svg10.dtd">
<svg version="1.0" xmlns="http://www.w3.org/2000/svg"
 width="225.000000pt" height="225.000000pt" viewBox="0 0 225.000000 225.000000"
 preserveAspectRatio="xMidYMid meet">

<g transform="translate(0.000000,225.000000) scale(0.100000,-0.100000)"
fill="#000000" stroke="none">
<path d="M1033 2089 c-181 -17 -357 -89 -502 -205 -173 -139 -292 -335 -337
-554 -23 -114 -15 -334 15 -439 138 -473 600 -769 1072 -686 205 36 373 121
517 263 366 361 374 955 18 1330 -159 168 -364 268 -596 292 -56 5 -103 9
-104 9 0 -1 -38 -5 -83 -10z m297 -150 c101 -25 241 -96 321 -162 378 -313
400 -885 47 -1223 -402 -386 -1053 -276 -1303 221 -61 122 -85 222 -86 360 -2
240 82 439 255 602 208 198 487 272 766 202z"/>
<path d="M721 1565 l-41 -65 0 -260 0 -260 185 0 185 0 0 -225 0 -225 80 0 80
0 0 225 0 225 185 0 185 0 0 263 0 262 -41 64 -41 65 -39 -62 -39 -61 0 -196
0 -195 -105 0 -105 0 0 192 0 191 -37 64 c-20 34 -40 63 -43 63 -3 0 -22 -29
-42 -65 l-38 -64 0 -190 0 -191 -105 0 -105 0 0 196 0 196 -36 59 c-20 32 -38
59 -40 59 -1 0 -21 -29 -43 -65z"/>
</g>
</svg>
