<?xml version="1.0" standalone="no"?>
<!DOCTYPE svg PUBLIC "-//W3C//DTD SVG 20010904//EN"
 "http://www.w3.org/TR/2001/REC-SVG-20010904/DTD/svg10.dtd">
<svg version="1.0" xmlns="http://www.w3.org/2000/svg"
 width="199.000000pt" height="200.000000pt" viewBox="0 0 199.000000 200.000000"
 preserveAspectRatio="xMidYMid meet">

<g transform="translate(0.000000,200.000000) scale(0.100000,-0.100000)"
fill="#000000" stroke="none">
<path d="M964 1575 c-2 -5 -5 -111 -6 -233 l-3 -224 -50 34 c-66 44 -91 96
-105 218 -6 52 -14 114 -16 138 l-5 42 -53 0 c-29 0 -55 -2 -57 -4 -3 -3 -1
-51 3 -108 16 -230 82 -327 271 -391 14 -5 17 -19 17 -87 l0 -80 50 0 50 0 0
80 c0 79 0 80 28 86 113 25 196 92 230 185 23 62 42 183 42 265 l0 54 -55 0
-55 0 0 -42 c0 -60 -17 -173 -36 -236 -17 -60 -72 -122 -123 -140 l-32 -11 3
229 3 228 -49 4 c-27 2 -50 -1 -52 -7z"/>
<path d="M230 543 c0 -5 14 -28 30 -53 21 -32 30 -57 30 -87 0 -39 2 -43 25
-43 23 0 25 4 25 43 0 30 9 55 30 87 36 54 37 60 7 60 -15 0 -28 -11 -41 -35
l-20 -36 -20 36 c-14 24 -27 35 -43 35 -13 0 -23 -3 -23 -7z"/>
<path d="M529 455 l-37 -95 24 0 c14 0 25 8 29 20 5 16 15 20 46 20 28 0 39
-4 39 -15 0 -15 39 -36 52 -29 4 3 -11 46 -32 97 -32 75 -43 93 -62 95 -21 2
-27 -7 -59 -93z m66 -13 c-22 -5 -27 1 -19 23 7 17 8 17 21 -1 12 -17 12 -19
-2 -22z"/>
<path d="M810 542 c0 -4 12 -24 26 -45 l26 -38 -31 -47 c-30 -46 -30 -47 -9
-50 15 -3 30 5 45 24 22 28 23 28 37 9 9 -11 16 -23 16 -27 0 -5 14 -8 30 -8
l31 0 -31 44 c-16 25 -30 48 -30 53 0 5 11 25 25 45 31 45 31 48 1 48 -15 0
-30 -10 -41 -27 l-17 -26 -17 26 c-14 25 -61 39 -61 19z"/>
<path d="M1110 453 l0 -98 75 3 c66 3 75 6 75 23 0 16 -7 19 -55 19 -48 0 -55
2 -55 20 0 17 7 20 50 20 43 0 50 3 50 20 0 17 -7 20 -50 20 -38 0 -50 4 -50
15 0 11 12 15 49 15 40 0 50 3 54 20 5 19 0 20 -69 20 l-74 0 0 -97z"/>
<path d="M1400 455 l0 -95 70 0 c63 0 70 2 70 20 0 17 -7 20 -45 20 l-45 0 0
75 c0 73 -1 75 -25 75 -25 0 -25 0 -25 -95z"/>
<path d="M1680 455 l0 -95 71 0 c62 0 70 2 67 18 -2 13 -15 18 -51 20 l-47 3
0 75 c0 67 -2 74 -20 74 -19 0 -20 -7 -20 -95z"/>
</g>
</svg>
